<svg xmlns="http://www.w3.org/2000/svg" viewBox="0 0 514 514">
    <path fill="currentColor" d="M32,464V48c0-8.837,7.163-16,16-16h240v64c0,17.673,14.327,32,32,32h64v48h32v-64c0.025-4.253-1.645-8.341-4.64-11.36 l-96-96C312.341,1.645,308.253-0.024,304,0H48C21.49,0,0,21.491,0,48v416c0,26.51,21.49,48,48,48h160v-32H48 C39.164,480,32,472.837,32,464z"/>
    <path fill="currentColor" d="M368,224c-79.529,0-144,64.471-144,144s64.471,144,144,144s144-64.471,144-144S447.529,224,368,224z M368,480 c-61.856,0-112-50.144-112-112s50.144-112,112-112s112,50.144,112,112S429.856,480,368,480z"/>
    <path fill="currentColor" d="M384,377.44V304h-32v73.44l-20.64-20.64l-22.56,22.56l48,48c6.241,6.204,16.319,6.204,22.56,0l48-48L404.8,356.8 L384,377.44z"/>
</svg>
